<svg xmlns="http://www.w3.org/2000/svg" width="82" height="82" viewBox="0 0 82 82"><g transform="translate(-932 -631)"><circle cx="41" cy="41" r="41" transform="translate(932 631)" fill="#82acff"/><path d="M40,6.429v4.018c0,3.541-8.958,6.429-20,6.429S0,13.987,0,10.446V6.429C0,2.888,8.958,0,20,0S40,2.888,40,6.429Zm0,9.04v9.04c0,3.541-8.958,6.429-20,6.429S0,28.05,0,24.509v-9.04c4.3,2.913,12.161,4.269,20,4.269S35.7,18.382,40,15.469Zm0,14.063v9.04C40,42.112,31.042,45,20,45S0,42.112,0,38.571v-9.04C4.3,32.444,12.161,33.8,20,33.8S35.7,32.444,40,29.531Z" transform="translate(953 650)" fill="#fff"/></g></svg>