<svg xmlns="http://www.w3.org/2000/svg" width="24.374" height="24.374" viewBox="0 0 24.374 24.374"><path d="M6.462,10.858,2.708,5.088A12.186,12.186,0,0,1,23.063,7.256L12.974,6.725A6.405,6.405,0,0,0,6.462,10.858ZM8.079,12.75a4.108,4.108,0,1,0,4.108-4.108A4.107,4.107,0,0,0,8.079,12.75ZM23.554,8.366l-6.865.354a6.442,6.442,0,0,1,.324,7.725L11.5,24.918A12.191,12.191,0,0,0,23.554,8.366ZM6.57,15.089,1.985,6.071A12.193,12.193,0,0,0,10.3,24.785l3.13-6.133A6.437,6.437,0,0,1,6.57,15.089Z" transform="translate(0 -0.562)" fill="#82acff"/></svg>