<svg xmlns="http://www.w3.org/2000/svg" width="140" height="100" viewBox="0 0 140 100"><path d="M137.348,37.521A1.654,1.654,0,0,1,140,38.745V92c0,6.9-5.879,12.5-13.125,12.5H13.125C5.879,104.5,0,98.9,0,92V38.771a1.643,1.643,0,0,1,2.652-1.224C8.777,42.078,16.9,47.833,44.789,67.13c5.77,4.01,15.5,12.448,25.211,12.4,9.762.078,19.688-8.542,25.238-12.4C123.129,47.833,131.223,42.052,137.348,37.521ZM70,71.167c6.344.1,15.477-7.6,20.07-10.781,36.285-25.078,39.047-27.266,47.414-33.516A6.129,6.129,0,0,0,140,21.948V17c0-6.9-5.879-12.5-13.125-12.5H13.125C5.879,4.5,0,10.1,0,17v4.948A6.166,6.166,0,0,0,2.516,26.87c8.367,6.224,11.129,8.438,47.414,33.516C54.523,63.562,63.656,71.271,70,71.167Z" transform="translate(0 -4.5)" fill="#8bffff"/></svg>