<svg xmlns="http://www.w3.org/2000/svg" width="23.049" height="18.44" viewBox="0 0 23.049 18.44"><path d="M8.936,17.211c0,1-.523,2.646-1.762,2.646s-1.762-1.642-1.762-2.646.523-2.646,1.762-2.646,1.762,1.642,1.762,2.646Zm14.113-2.425a10.407,10.407,0,0,1-.84,4.562c-1.82,3.678-6.823,3.592-10.406,3.592-3.64,0-8.941.13-10.833-3.592A10.278,10.278,0,0,1,0,14.786,8.258,8.258,0,0,1,1.993,9.331a7.517,7.517,0,0,1-.37-2.343,4.781,4.781,0,0,1,.7-2.487A7.5,7.5,0,0,1,7.549,6.229a18.393,18.393,0,0,1,4.259-.48,16.564,16.564,0,0,1,3.861.442A7.421,7.421,0,0,1,20.845,4.5a4.737,4.737,0,0,1,.7,2.487,7.411,7.411,0,0,1-.37,2.315,8.274,8.274,0,0,1,1.873,5.484Zm-3.088,2.425c0-2.108-1.282-3.966-3.529-3.966a19.743,19.743,0,0,0-2.689.288,14.109,14.109,0,0,1-2.166.154,14.2,14.2,0,0,1-2.166-.154,19.423,19.423,0,0,0-2.689-.288c-2.247,0-3.529,1.858-3.529,3.966,0,4.216,3.861,4.864,7.222,4.864H12.73c3.376,0,7.232-.643,7.232-4.864ZM16,14.565c-1.239,0-1.762,1.642-1.762,2.646s.523,2.646,1.762,2.646,1.762-1.642,1.762-2.646S17.234,14.565,16,14.565Z" transform="translate(0 -4.5)" fill="#82acff"/></svg>