<svg xmlns="http://www.w3.org/2000/svg" width="42.475" height="97.005" viewBox="0 0 42.475 97.005">
  <g id="down_icon" data-name="down icon" transform="translate(-939.214 -908.071)">
    <g id="Path_1" data-name="Path 1" transform="translate(939.214 916.372)" fill="#fff">
      <path d="M 21.23764038085938 86.20410919189453 C 18.74338340759277 86.20410919189453 16.24422645568848 85.76454925537109 13.80959796905518 84.89765167236328 C 11.63495445251465 84.12330627441406 9.527312278747559 82.99972534179688 7.714554786682129 81.64835357666016 C 4.131797313690186 78.97747802734375 2.499997615814209 76.08562469482422 2.499997615814209 74.52898406982422 L 2.499997615814209 9.490965843200684 C 2.499997615814209 9.154637336730957 2.597426176071167 7.882980346679688 3.85114049911499 5.640251636505127 C 4.867897510528564 3.821394681930542 6.292469024658203 1.989966034889221 7.970840454101563 0.3439374268054962 C 9.83146858215332 -1.480834007263184 11.94058322906494 -2.996362686157227 14.07014083862305 -4.038805484771729 C 16.45832633972168 -5.207833766937256 18.86982536315918 -5.800590991973877 21.23764038085938 -5.800590991973877 C 23.60545539855957 -5.800590991973877 26.01695442199707 -5.207833766937256 28.4051399230957 -4.038805484771729 C 30.53469657897949 -2.996362686157227 32.6438102722168 -1.480834007263184 34.50444030761719 0.3439374268054962 C 36.18281173706055 1.989966034889221 37.60738372802734 3.821394681930542 38.62414169311523 5.640251636505127 C 39.87785339355469 7.882980346679688 39.97528457641602 9.154637336730957 39.97528457641602 9.490965843200684 L 39.97528457641602 74.52898406982422 C 39.97528457641602 76.08562469482422 38.34348297119141 78.97747802734375 34.76072692871094 81.64835357666016 C 32.94796752929688 82.99972534179688 30.8403263092041 84.12330627441406 28.66568374633789 84.89765167236328 C 26.23105430603027 85.76454925537109 23.73189735412598 86.20410919189453 21.23764038085938 86.20410919189453 Z" stroke="none"/>
      <path d="M 21.23764038085938 -3.30059814453125 C 19.27092361450195 -3.30059814453125 17.24645614624023 -2.801895141601563 15.22047424316406 -1.818351745605469 C 13.3427906036377 -0.90679931640625 11.46973991394043 0.430267333984375 9.803825378417969 2.048301696777344 C 8.318023681640625 3.491386413574219 7.001724243164063 5.159950256347656 6.097408294677734 6.746604919433594 C 5.220073699951172 8.285926818847656 5.008022308349609 9.250251770019531 5.000007629394531 9.494621276855469 L 5.000007629394531 74.52241516113281 C 5.034824371337891 75.09755706787109 6.126628875732422 77.39226531982422 9.355522155761719 79.75234985351563 C 10.96420669555664 80.92816925048828 12.82829093933105 81.90495300292969 14.74622344970703 82.57711791992188 C 16.88004112243652 83.32493591308594 19.06405639648438 83.7041015625 21.23764038085938 83.7041015625 C 23.41122436523438 83.7041015625 25.59523963928223 83.32493591308594 27.72904014587402 82.57711791992188 C 29.64699172973633 81.90495300292969 31.51105690002441 80.92816925048828 33.1197395324707 79.75234985351563 C 36.34865188598633 77.39228057861328 37.44045639038086 75.09755706787109 37.47527313232422 74.52241516113281 L 37.47527313232422 9.494621276855469 C 37.46725845336914 9.250251770019531 37.25520706176758 8.285926818847656 36.37787246704102 6.746604919433594 C 35.47355651855469 5.159950256347656 34.15725708007813 3.491386413574219 32.67145538330078 2.048301696777344 C 31.00552368164063 0.430267333984375 29.13247299194336 -0.90679931640625 27.25480651855469 -1.818351745605469 C 25.22882461547852 -2.801895141601563 23.2043571472168 -3.30059814453125 21.23764038085938 -3.30059814453125 M 21.23764038085938 -8.30059814453125 C 32.96685791015625 -8.30059814453125 42.47527313232422 4.061271667480469 42.47527313232422 9.490966796875 L 42.47527313232422 74.52898406982422 C 42.47527313232422 79.95868682861328 32.96685791015625 88.7041015625 21.23764038085938 88.7041015625 C 9.508407592773438 88.7041015625 7.62939453125e-06 79.95868682861328 7.62939453125e-06 74.52898406982422 L 7.62939453125e-06 9.490966796875 C 7.62939453125e-06 4.061271667480469 9.508407592773438 -8.30059814453125 21.23764038085938 -8.30059814453125 Z" stroke="none" fill="#82acff"/>
    </g>
    <line id="Line_1" data-name="Line 1" y2="23" transform="translate(960.5 962.5)" fill="none" stroke="#82acff" stroke-linecap="round" stroke-width="5"/>
  </g>
</svg>
