<svg xmlns="http://www.w3.org/2000/svg" width="82" height="82" viewBox="0 0 82 82"><g transform="translate(-1444 -631)"><circle cx="41" cy="41" r="41" transform="translate(1444 631)" fill="#82acff"/><path d="M39.147,30.911,30,21.763a5.8,5.8,0,0,0-6.672-1.086L15,12.35V7.5L5,0,0,5,7.5,15h4.851l8.328,8.327A5.813,5.813,0,0,0,21.765,30l9.148,9.148a2.9,2.9,0,0,0,4.117,0l4.117-4.117a2.918,2.918,0,0,0,0-4.117ZM25.913,17.576A8.219,8.219,0,0,1,31.764,20l1.516,1.515a11.058,11.058,0,0,0,3.422-2.3A11.234,11.234,0,0,0,39.662,8.53a.935.935,0,0,0-1.57-.43L32.28,13.913l-5.3-.883-.883-5.3L31.9,1.914A.943.943,0,0,0,31.46.336,11.254,11.254,0,0,0,20.788,3.3,11.07,11.07,0,0,0,17.57,11.39L23.983,17.8A8.511,8.511,0,0,1,25.913,17.576ZM17.8,23.982l-4.429-4.429L1.461,31.466a5,5,0,0,0,7.07,7.07l9.656-9.655a8.388,8.388,0,0,1-.391-4.9ZM5,36.871A1.875,1.875,0,1,1,6.875,35,1.88,1.88,0,0,1,5,36.871Z" transform="translate(1464.804 651.998)" fill="#fff"/></g></svg>