<svg xmlns="http://www.w3.org/2000/svg" width="24.331" height="17.107" viewBox="0 0 24.331 17.107"><path d="M24.872,7.177a3.057,3.057,0,0,0-2.151-2.165c-1.9-.512-9.506-.512-9.506-.512s-7.608,0-9.506.512A3.057,3.057,0,0,0,1.558,7.177a32.071,32.071,0,0,0-.508,5.894,32.071,32.071,0,0,0,.508,5.894A3.012,3.012,0,0,0,3.709,21.1c1.9.512,9.506.512,9.506.512s7.608,0,9.506-.512a3.012,3.012,0,0,0,2.151-2.13,32.071,32.071,0,0,0,.508-5.894,32.071,32.071,0,0,0-.508-5.894ZM10.727,16.689V9.453l6.359,3.618-6.359,3.618Z" transform="translate(-1.05 -4.5)" fill="#82acff"/></svg>