<svg xmlns="http://www.w3.org/2000/svg" width="58.606" height="58.606" viewBox="0 0 58.606 58.606"><path d="M52.326,2.25H6.279A6.281,6.281,0,0,0,0,8.529V54.576a6.281,6.281,0,0,0,6.279,6.279H52.326a6.281,6.281,0,0,0,6.279-6.279V8.529A6.281,6.281,0,0,0,52.326,2.25ZM36.275,52.444c-1.1.2-1.5-.484-1.5-1.047,0-.706.026-4.317.026-7.234a5.1,5.1,0,0,0-1.478-4.016c4.84-.536,9.942-1.2,9.942-9.563,0-2.381-.85-3.571-2.237-5.1A8.182,8.182,0,0,0,40.8,19.6c-1.818-.563-5.978,2.342-5.978,2.342a20.579,20.579,0,0,0-10.884,0s-4.16-2.9-5.978-2.342a8.118,8.118,0,0,0-.222,5.887,6.57,6.57,0,0,0-2.041,5.1c0,8.32,4.879,9.026,9.72,9.563a4.741,4.741,0,0,0-1.387,2.917c-1.243.563-4.422,1.531-6.318-1.818a4.557,4.557,0,0,0-3.336-2.237c-2.119-.026-.144,1.334-.144,1.334,1.413.654,2.407,3.166,2.407,3.166,1.269,3.885,7.339,2.577,7.339,2.577,0,1.818.026,4.775.026,5.311,0,.563-.392,1.243-1.5,1.047A21.7,21.7,0,0,1,7.823,31.736,20.76,20.76,0,0,1,29.015,10.609c12.009,0,21.742,9.118,21.742,21.127A21.5,21.5,0,0,1,36.275,52.444ZM23.442,44.451c-.249.052-.484-.052-.51-.222-.026-.2.144-.366.392-.419.249-.026.484.078.51.249S23.7,44.4,23.442,44.451ZM22.2,44.334c0,.17-.2.314-.458.314-.288.026-.484-.118-.484-.314,0-.17.2-.314.458-.314C21.964,43.993,22.2,44.137,22.2,44.334Zm-1.792-.144c-.052.17-.314.249-.536.17-.249-.052-.419-.249-.366-.419s.314-.249.536-.2C20.3,43.823,20.473,44.02,20.407,44.19ZM18.8,43.483c-.118.144-.366.118-.563-.078-.2-.17-.249-.419-.118-.536.118-.144.366-.118.563.078C18.851,43.117,18.916,43.379,18.8,43.483Zm-1.19-1.19c-.118.078-.34,0-.484-.2s-.144-.419,0-.51c.144-.118.366-.026.484.17a.383.383,0,0,1,0,.536Zm-.85-1.269c-.118.118-.314.052-.458-.078-.144-.17-.17-.366-.052-.458.118-.118.314-.052.458.078C16.849,40.736,16.875,40.932,16.758,41.024Zm-.876-.968a.246.246,0,0,1-.366.052c-.17-.078-.249-.222-.2-.34a.308.308,0,0,1,.366-.052C15.855,39.807,15.933,39.951,15.881,40.056Z" transform="translate(0 -2.25)" fill="#8bffff"/></svg>