<svg xmlns="http://www.w3.org/2000/svg" width="58" height="57.999" viewBox="0 0 58 57.999"><path d="M12.474-238.593C10.922-237.754,11-239.254,11-210c0,29.356-.076,27.778,1.526,28.618.636.331,4.07.382,27.473.382s26.837-.051,27.473-.382c1.6-.839,1.526.738,1.526-28.618s.076-27.778-1.526-28.618c-.636-.331-4.07-.382-27.524-.382C16.747-238.975,13.059-238.924,12.474-238.593Zm25.871,13.558c.178.305-2.875,25.133-3.18,25.9-.229.56-.382.585-3.027.585a10.553,10.553,0,0,1-2.9-.2c-.127-.178,2.8-25.591,3-26.2C32.366-225.34,38.09-225.416,38.344-225.035Zm12.261.153c.254.687-3.231,27.575-3.739,28.949a6.276,6.276,0,0,1-3.129,3.663c-1.221.636-1.6.712-4.833.789-2.34.076-3.612,0-3.841-.178-.229-.2-.305-.661-.2-1.5.2-1.908.356-2.086,2.035-2.086,1.832,0,3.154-.356,3.739-1.018.382-.432.763-2.951,2.188-14.423.941-7.631,1.781-14.042,1.857-14.22C44.882-225.467,50.376-225.416,50.605-224.882Z" transform="translate(-10.998 239)" fill="#8bffff"/></svg>