<svg xmlns="http://www.w3.org/2000/svg" width="58" height="58" viewBox="0 0 58 58"><path d="M53.857,2.25H4.13A4.161,4.161,0,0,0,0,6.432V56.068A4.161,4.161,0,0,0,4.13,60.25H53.857A4.172,4.172,0,0,0,58,56.068V6.432A4.172,4.172,0,0,0,53.857,2.25ZM17.529,51.964h-8.6V24.285h8.609V51.964Zm-4.3-31.46a4.984,4.984,0,1,1,4.984-4.984A4.987,4.987,0,0,1,13.231,20.5Zm36.522,31.46h-8.6V38.5c0-3.211-.065-7.341-4.467-7.341-4.479,0-5.166,3.5-5.166,7.108v13.7h-8.6V24.285h8.247v3.78h.117A9.054,9.054,0,0,1,39.435,23.6c8.7,0,10.318,5.735,10.318,13.192Z" transform="translate(0 -2.25)" fill="#8bffff"/></svg>